<?xml version="1.0" encoding="UTF-8"?>
<svg xmlns="http://www.w3.org/2000/svg" xmlns:xlink="http://www.w3.org/1999/xlink" viewBox="0 0 512 512" width="512px" height="512px">
<g id="surface99891083">
<path style=" stroke:none;fill-rule:nonzero;fill:rgb(100%,100%,100%);fill-opacity:1;" d="M 398.222656 341.332031 C 413.929688 341.332031 426.667969 354.070312 426.667969 369.777344 C 426.667969 385.484375 413.929688 398.222656 398.222656 398.222656 C 389.675781 398.222656 122.324219 398.222656 113.777344 398.222656 C 98.070312 398.222656 85.332031 385.484375 85.332031 369.777344 C 85.332031 354.070312 98.070312 341.332031 113.777344 341.332031 C 122.324219 341.332031 389.675781 341.332031 398.222656 341.332031 Z M 398.222656 227.554688 C 413.929688 227.554688 426.667969 240.292969 426.667969 256 C 426.667969 271.707031 413.929688 284.445312 398.222656 284.445312 C 389.675781 284.445312 122.324219 284.445312 113.777344 284.445312 C 98.070312 284.445312 85.332031 271.707031 85.332031 256 C 85.332031 240.292969 98.070312 227.554688 113.777344 227.554688 C 122.324219 227.554688 389.675781 227.554688 398.222656 227.554688 Z M 398.222656 113.777344 C 413.929688 113.777344 426.667969 126.515625 426.667969 142.222656 C 426.667969 157.929688 413.929688 170.667969 398.222656 170.667969 C 389.675781 170.667969 122.324219 170.667969 113.777344 170.667969 C 98.070312 170.667969 85.332031 157.929688 85.332031 142.222656 C 85.332031 126.515625 98.070312 113.777344 113.777344 113.777344 C 122.324219 113.777344 389.675781 113.777344 398.222656 113.777344 Z M 398.222656 113.777344 "/>
</g>
</svg>
